<?xml version="1.0" encoding="UTF-8"?>
<svg version="1.1" xmlns="http://www.w3.org/2000/svg" width="512" height="512">
<path d="M0 0 C4.07371199 0.00914608 8.14735849 -0.00496601 12.22105694 -0.01591969 C20.17765482 -0.03360871 28.13410087 -0.02990815 36.09070444 -0.01826912 C42.56324498 -0.00919692 49.03574329 -0.00802708 55.50828838 -0.01236439 C56.8956167 -0.01328379 56.8956167 -0.01328379 58.31097186 -0.01422176 C60.19047309 -0.01550079 62.06997432 -0.01679765 63.94947553 -0.01811212 C81.53031666 -0.02948975 99.11107405 -0.0164486 116.69190145 0.00508934 C131.74277919 0.02295775 146.79353347 0.01985285 161.84440899 0.0014143 C179.36683906 -0.02004238 196.88919593 -0.02839137 214.41163731 -0.01613665 C216.28382014 -0.01486259 218.15600299 -0.0136051 220.02818584 -0.01236439 C220.9490843 -0.01174729 221.86998275 -0.01113018 222.81878722 -0.01049438 C229.27568975 -0.00705584 235.73254545 -0.01283737 242.18944073 -0.0222826 C250.06951944 -0.03355746 257.949439 -0.03034815 265.82949972 -0.00915962 C269.84197168 0.00127756 273.8541793 0.0055997 277.86664867 -0.00775623 C309.72328262 -0.10471402 337.99599089 4.32507475 361.76823711 27.52289867 C362.61386211 28.32727367 363.45948711 29.13164867 364.33073711 29.96039867 C365.53729961 31.22883617 365.53729961 31.22883617 366.76823711 32.52289867 C367.76597149 33.52836742 367.76597149 33.52836742 368.78386211 34.55414867 C391.33652473 58.18074761 394.3945222 87.69469143 394.29113579 118.75466156 C394.2819897 122.82837355 394.2961018 126.90202005 394.30705547 130.9757185 C394.3247445 138.93231638 394.32104394 146.88876243 394.30940491 154.845366 C394.30033271 161.31790654 394.29916287 167.79040485 394.30350018 174.26294994 C394.30411311 175.18783549 394.30472604 176.11272104 394.30535755 177.06563342 C394.30663658 178.94513465 394.30793344 180.82463588 394.30924791 182.70413709 C394.32062553 200.28497822 394.30758439 217.86573561 394.28604645 235.44656301 C394.26817804 250.49744075 394.27128294 265.54819503 394.28972149 280.59907055 C394.31117816 298.12150062 394.31952716 315.64385749 394.30727243 333.16629887 C394.30599838 335.0384817 394.30474089 336.91066455 394.30350018 338.7828474 C394.30288307 339.70374586 394.30226597 340.62464431 394.30163017 341.57344878 C394.29819163 348.03035131 394.30397316 354.48720701 394.31341839 360.94410229 C394.32469325 368.824181 394.32148393 376.70410056 394.30029541 384.58416128 C394.28985823 388.59663324 394.28553609 392.60884086 394.29889202 396.62131023 C394.3958498 428.47794418 389.96606104 456.75065245 366.76823711 480.52289867 C365.96386211 481.36852367 365.15948711 482.21414867 364.33073711 483.08539867 C363.48511211 483.88977367 362.63948711 484.69414867 361.76823711 485.52289867 C361.09792461 486.18805492 360.42761211 486.85321117 359.73698711 487.53852367 C336.11038818 510.09118629 306.59644436 513.14918376 275.53647423 513.04579735 C271.46276224 513.03665126 267.38911574 513.05076336 263.31541729 513.06171703 C255.35881941 513.07940606 247.40237336 513.0757055 239.44576979 513.06406647 C232.97322924 513.05499427 226.50073094 513.05382443 220.02818584 513.05816174 C218.64085753 513.05908113 218.64085753 513.05908113 217.22550237 513.06001911 C215.34600114 513.06129814 213.46649991 513.062595 211.5869987 513.06390947 C194.00615757 513.07528709 176.42540018 513.06224595 158.84457278 513.04070801 C143.79369504 513.0228396 128.74294075 513.0259445 113.69206524 513.04438305 C96.16963517 513.06583972 78.6472783 513.07418872 61.12483692 513.06193399 C59.25265409 513.06065994 57.38047124 513.05940245 55.50828838 513.05816174 C54.58738993 513.05754463 53.66649148 513.05692753 52.71768701 513.05629173 C46.26078448 513.05285319 39.80392878 513.05863472 33.3470335 513.06807995 C25.46695479 513.07935481 17.58703523 513.07614549 9.70697451 513.05495697 C5.69450255 513.04451979 1.68229493 513.04019765 -2.33017445 513.05355358 C-34.18680839 513.15051136 -62.45951666 508.7207226 -86.23176289 485.52289867 C-87.50020039 484.31633617 -87.50020039 484.31633617 -88.79426289 483.08539867 C-89.59863789 482.23977367 -90.40301289 481.39414867 -91.23176289 480.52289867 C-91.89691914 479.85258617 -92.56207539 479.18227367 -93.24738789 478.49164867 C-115.8000505 454.86504974 -118.85804797 425.35110592 -118.75466156 394.29113579 C-118.74551548 390.2174238 -118.75962757 386.1437773 -118.77058125 382.07007885 C-118.78827027 374.11348097 -118.78456971 366.15703492 -118.77293068 358.20043135 C-118.76385848 351.7278908 -118.76268864 345.2553925 -118.76702595 338.7828474 C-118.76763888 337.85796186 -118.76825181 336.93307631 -118.76888332 335.98016393 C-118.77016235 334.1006627 -118.77145921 332.22116147 -118.77277368 330.34166026 C-118.78415131 312.76081913 -118.77111016 295.18006174 -118.74957222 277.59923434 C-118.73170381 262.5483566 -118.73480871 247.49760231 -118.75324726 232.4467268 C-118.77470394 214.92429673 -118.78305293 197.40193986 -118.77079821 179.87949848 C-118.76952415 178.00731565 -118.76826666 176.1351328 -118.76702595 174.26294994 C-118.76640885 173.34205149 -118.76579174 172.42115304 -118.76515594 171.47234857 C-118.7617174 165.01544604 -118.76749893 158.55859034 -118.77694416 152.10169506 C-118.78821902 144.22161635 -118.78500971 136.34169679 -118.76382118 128.46163607 C-118.753384 124.44916411 -118.74906186 120.43695649 -118.76241779 116.42448711 C-118.85937558 84.56785317 -114.42958681 56.2951449 -91.23176289 32.52289867 C-90.42738789 31.67727367 -89.62301289 30.83164867 -88.79426289 29.96039867 C-87.94863789 29.15602367 -87.10301289 28.35164867 -86.23176289 27.52289867 C-85.56145039 26.85774242 -84.89113789 26.19258617 -84.20051289 25.50727367 C-60.57391395 2.95461106 -31.05997013 -0.10338641 0 0 Z " fill="#FEFEFE" transform="translate(118.23176288604736,-0.5228986740112305)"/>
<path d="M0 0 C0.93613579 -0.00367669 1.87227158 -0.00735338 2.83677512 -0.01114148 C5.98728367 -0.02219281 9.13775926 -0.02602462 12.2882843 -0.02983093 C14.54172877 -0.03609449 16.79517221 -0.04274119 19.0486145 -0.04974365 C25.18100624 -0.06716335 31.31339018 -0.07770808 37.44580054 -0.08594918 C41.27599012 -0.09109731 45.10617727 -0.09717313 48.93636513 -0.10346031 C59.54360891 -0.12033106 70.15085055 -0.13496579 80.75810528 -0.14220905 C83.51035247 -0.14411891 86.26259965 -0.14603924 89.0148468 -0.147995 C90.04091642 -0.14872061 90.04091642 -0.14872061 91.08771471 -0.14946087 C102.16579755 -0.15775902 113.24377233 -0.1830924 124.321808 -0.21557567 C135.69891276 -0.2486635 147.0759433 -0.26632673 158.45310336 -0.26985329 C164.83953204 -0.2722054 171.22578995 -0.28118699 177.61217308 -0.30631447 C183.621221 -0.32957498 189.62998545 -0.33383636 195.6390667 -0.32355309 C197.84330945 -0.32305713 200.04756606 -0.32939514 202.2517662 -0.34310913 C205.26413122 -0.36080102 208.27547599 -0.35373468 211.2878418 -0.34057617 C212.15741081 -0.35154542 213.02697983 -0.36251466 213.92289943 -0.37381631 C221.13000509 -0.29795897 226.2072739 1.83121816 231.71138 6.45967102 C237.95591762 13.91842429 238.58789971 18.5642267 237.96138 28.14717102 C237.26093058 34.56122627 236.26509395 40.93216603 235.24531555 47.30195618 C234.77424024 50.26990139 234.33107719 53.24117515 233.88911438 56.21357727 C230.49006394 78.21834525 230.49006394 78.21834525 223.14888 85.08467102 C216.47747264 89.40146402 210.69773267 90.59293142 202.9289093 90.53485107 C202.05383822 90.54023661 201.17876715 90.54562215 200.27717876 90.55117089 C197.3631731 90.56540738 194.44962447 90.55835744 191.53559875 90.55122375 C189.43904761 90.55692951 187.34249958 90.56389457 185.24595642 90.57202148 C179.56421111 90.58994368 173.88262032 90.58878641 168.20085526 90.5830791 C163.45421966 90.57998638 158.7076137 90.58608054 153.96098232 90.59211785 C142.76284756 90.60615794 131.56478909 90.60460561 120.36665344 90.59321594 C108.81949727 90.58173074 97.27257324 90.59581846 85.72544765 90.62261242 C75.8042077 90.64477051 65.88304062 90.65140666 55.96177769 90.64553601 C50.03933717 90.64216606 44.11704553 90.64458439 38.19462585 90.66178703 C32.62623246 90.67725606 27.05818311 90.6733008 21.48980331 90.65448189 C19.44843486 90.65079616 17.40704092 90.65390398 15.36569595 90.66436768 C12.57468515 90.67757998 9.78481297 90.66602794 6.99385071 90.64837646 C6.18994746 90.65798147 5.38604422 90.66758648 4.55778027 90.67748255 C-1.91857488 90.59345644 -7.05106496 88.66516927 -12.02690125 84.47138977 C-12.68238953 83.66121399 -12.68238953 83.66121399 -13.35112 82.83467102 C-14.02594421 82.0360968 -14.02594421 82.0360968 -14.71440125 81.22138977 C-18.53432391 75.23797108 -19.7926495 69.17050049 -20.86283875 62.26045227 C-21.01396622 61.32219101 -21.16509369 60.38392975 -21.32080078 59.41723633 C-21.63694702 57.43869094 -21.94848456 55.45940422 -22.25566101 53.47944641 C-22.72230543 50.48415592 -23.20848814 47.49250796 -23.69682312 44.50068665 C-28.03986951 17.35997315 -28.03986951 17.35997315 -21.89408875 8.27998352 C-15.77845758 1.25022643 -8.96300509 -0.00187623 0 0 Z " fill="#4C46C8" transform="translate(150.0386199951172,98.85282897949219)"/>
<path d="M0 0 C0.7288779 -0.00453111 1.45775581 -0.00906223 2.20872092 -0.01373065 C4.64594633 -0.02636951 7.08294813 -0.02475461 9.52020264 -0.02310181 C11.26986477 -0.02908746 13.01952427 -0.03589309 14.7691803 -0.04345703 C19.51935115 -0.06112242 24.26944994 -0.0658127 29.01965046 -0.0670886 C31.98919994 -0.06851068 34.95873113 -0.07278139 37.92827606 -0.07808304 C48.29340273 -0.09658647 58.65847797 -0.10475343 69.02362061 -0.10317993 C78.67629601 -0.10197908 88.32874761 -0.12306966 97.9813664 -0.15466726 C106.27539279 -0.18084726 114.56934619 -0.19154647 122.86341357 -0.19026911 C127.81400338 -0.1897599 132.76439438 -0.19542019 137.71494293 -0.21662521 C142.3738855 -0.23603613 147.03244021 -0.23611258 151.69139671 -0.22159195 C153.39693711 -0.21950615 155.10250197 -0.22419105 156.80800056 -0.23631287 C167.0602064 -0.30443367 174.69249908 0.41928133 183.47625732 6.07992554 C188.17728479 10.78095301 189.93073351 14.39956637 190.24578857 21.00180054 C190.11163491 31.30026365 186.48618636 40.74477108 183.15740967 50.39193726 C182.03689995 53.64782253 180.95569647 56.91492319 179.87860107 60.18539429 C179.17125197 62.28382261 178.46169206 64.38150727 177.74969482 66.47836304 C177.27117569 67.92546158 177.27117569 67.92546158 176.7829895 69.40179443 C174.21721836 76.74271262 170.92135611 83.58889853 164.03875732 87.70492554 C159.31989177 89.88958552 155.79256983 90.39455255 150.59341431 90.42132568 C149.34865829 90.42992615 148.10390228 90.43852661 146.82142639 90.4473877 C145.44448894 90.45182258 144.06755105 90.45612097 142.69061279 90.46029663 C141.23828436 90.46820174 139.78595787 90.47647095 138.33363342 90.4850769 C133.56608952 90.51125367 128.79853704 90.52660201 124.03094482 90.54086304 C122.38680135 90.54622485 120.74265793 90.55160236 119.09851456 90.55699539 C112.256281 90.57861935 105.41404976 90.59735374 98.5717907 90.60861778 C88.78220131 90.62484239 78.99300971 90.65798928 69.20357025 90.71501863 C62.31167062 90.753792 55.41987705 90.7732593 48.52787125 90.77853835 C44.41606286 90.78218222 40.30467916 90.79409976 36.19298935 90.82664108 C32.32028952 90.85685191 28.44826843 90.86298786 24.57547569 90.85125732 C23.16059645 90.85103766 21.74568452 90.85925365 20.33091545 90.87691116 C10.95305577 90.98750494 3.04099254 90.161543 -4.13997078 83.6257534 C-9.95742266 77.29648053 -11.88194739 67.64782982 -14.39874268 59.64242554 C-15.15706533 57.27937082 -15.91973613 54.91775144 -16.68286133 52.5562439 C-17.18109581 51.01193971 -17.67693 49.46685894 -18.17028809 47.92098999 C-20.08798406 41.9350884 -22.18863455 36.03593351 -24.39019775 30.14779663 C-26.48114203 23.78161325 -25.99965881 19.17679309 -23.33624268 13.07992554 C-18.30464732 3.88868742 -10.2268977 0.02629219 0 0 Z " fill="#14114C" transform="translate(173.33624267578125,210.73257446289063)"/>
<path d="M0 0 C1.07706711 -0.00671722 2.15413422 -0.01343445 3.26383972 -0.02035522 C6.8247845 -0.03935301 10.38554089 -0.04326069 13.9465332 -0.04541016 C16.4264992 -0.05183801 18.90646443 -0.05856637 21.38642883 -0.06558228 C26.5873897 -0.07756035 31.78828413 -0.08126266 36.98925781 -0.08007812 C43.63921209 -0.07987518 50.28872697 -0.10715008 56.93860149 -0.14162254 C62.06287067 -0.16391271 67.18703718 -0.16791497 72.31134987 -0.16685867 C74.76204718 -0.16921247 77.21274741 -0.17802345 79.66339684 -0.19352341 C83.10011718 -0.21322048 86.53591966 -0.20732934 89.97265625 -0.1953125 C90.97613098 -0.20655151 91.97960571 -0.21779053 93.01348877 -0.22937012 C100.67684269 -0.16162084 107.66842955 1.35524432 113.74731445 6.25537109 C119.36177156 13.34362319 121.04612772 18.20749373 120.30981445 27.29052734 C119.42506744 31.33703244 118.15846444 35.21907273 116.8371582 39.14208984 C116.47642715 40.24096527 116.11569611 41.3398407 115.74403381 42.47201538 C114.98059568 44.78218293 114.20949992 47.08983256 113.43115234 49.39501953 C112.25107552 52.90434266 111.10833075 56.42436198 109.96801758 59.94677734 C109.21829376 62.20012446 108.46641179 64.45275491 107.7121582 66.70458984 C107.37643295 67.74749176 107.0407077 68.79039368 106.69480896 69.86489868 C103.91628651 77.94458687 100.18005718 84.47245999 92.52856445 88.75732422 C85.10675127 91.59907276 76.64014309 90.8631379 68.80981445 90.82177734 C67.00577587 90.82447634 65.20173872 90.82836215 63.39770508 90.83337402 C59.62868308 90.83924991 55.86004195 90.83076808 52.09106445 90.81201172 C47.279436 90.78922322 42.46870026 90.80235661 37.65710449 90.82630157 C33.93539807 90.84081144 30.21390049 90.83612988 26.4921875 90.82579041 C24.71891166 90.82313743 22.94561637 90.82634212 21.17236328 90.83570862 C1.71159337 90.91596374 1.71159337 90.91596374 -5.62832642 84.63093567 C-10.57557135 79.57622992 -12.72605956 73.97865962 -14.83862305 67.33349609 C-15.18148346 66.30871658 -15.52434387 65.28393707 -15.87759399 64.22810364 C-16.95843449 60.98380379 -18.01214835 57.73144438 -19.06518555 54.47802734 C-19.79387041 52.27496255 -20.52432287 50.07248157 -21.2565918 47.87060547 C-22.85725231 43.04621403 -24.4409631 38.21664911 -26.00961304 33.38175964 C-26.56267216 31.68234469 -27.12504082 29.98596152 -27.69018555 28.29052734 C-28.39284354 21.1602766 -28.11174403 15.1284625 -23.69018555 9.29052734 C-16.31741056 1.50216796 -10.48360461 -0.00937459 0 0 Z " fill="#4C46C8" transform="translate(209.690185546875,322.70947265625)"/>
</svg>
